<?xml version="1.0" encoding="utf-8"?>
<!-- Generator: Adobe Illustrator 25.2.0, SVG Export Plug-In . SVG Version: 6.00 Build 0)  -->
<svg version="1.1" id="Layer_1" xmlns="http://www.w3.org/2000/svg" xmlns:xlink="http://www.w3.org/1999/xlink" x="0px" y="0px"
	 viewBox="0 0 1366 768" style="enable-background:new 0 0 1366 768;" xml:space="preserve">
<style type="text/css">
	.st0{fill:#5D11FF;}
	.st1{fill:#E6E6E6;}
	.st2{fill:#7D4AFF;}
	.st3{fill:none;}
	.st4{fill:#7347FF;}
	.st5{fill:#643EFF;}
	.st6{fill:#6851FF;}
	.st7{fill:#6F61FF;}
	.st8{fill:#FF5E4A;}
	.st9{fill:#00D4B9;}
	.st10{fill:#FF8D4A;}
	.st11{fill:#FF9C46;}
	.st12{fill:#FFAE46;}
	.st13{fill:#FFBF4A;}
	.st14{fill:#FFD44A;}
	.st15{fill:#FFE459;}
	.st16{fill:#00ACB9;}
	.st17{fill:#00A3B9;}
	.st18{fill:#009DB9;}
	.st19{fill:#CCCCCC;}
	.st20{fill:#B3B3B3;}
	.st21{fill:#763CE5;}
	.st22{fill:#7E57DD;}
	.st23{fill:#8F76DD;}
	.st24{fill:#A295D8;}
	.st25{fill:#B4ADDB;}
	.st26{fill:#E0DDED;}
	.st27{fill:#6200FF;}
	.st28{fill:#7644F7;}
	.st29{fill:#7A53F7;}
	.st30{fill:#7D64FF;}
	.st31{fill:#00BCB9;}
	.st32{fill:#5D34FF;}
	.st33{font-family:'Montserrat-Medium';}
	.st34{font-size:18px;}
	.st35{fill:none;stroke:#000000;stroke-miterlimit:10;}
	.st36{fill:#FFFFFF;}
	.st37{fill:#5D008A;}
	.st38{fill:none;stroke:#5D008A;stroke-width:1.0999;stroke-miterlimit:10;}
	.st39{fill:none;stroke:#5D008A;stroke-width:0.8506;stroke-miterlimit:10;}
</style>
<path class="st0" d="M201.71,381c-2.4,6.1-4.46,12.37-6.2,18.8c-0.16,0.62-0.34,1.26-0.5,1.88c-1,3.73-1.87,7.52-2.61,11.34
	c-22.46-11.3-37.8-34.1-37.8-60.35c0-0.21,0-0.43,0.02-0.62c-0.02-0.09,0-0.18,0-0.27c0-0.39,0-0.76,0.02-1.16
	c-0.02-0.23-0.02-0.46,0.02-0.69c0.02-0.25,0.04-0.46,0.04-0.71c0.02,0.48,0.05,0.94,0.11,1.44c0.21,2.01,0.59,3.96,1.12,5.88
	c0.02,0.04,0.04,0.11,0.05,0.14c0.37,1.33,0.82,2.65,1.33,3.89c5.4,13.03,18.25,22.21,33.21,22.21
	C194.42,382.8,198.19,382.16,201.71,381z"/>
<path class="st1" d="M158.08,334.37l-0.32,17.26c-0.71-0.02-2.15-0.12-4.19-0.27c-6.2-0.43-17.97-1.35-31.37-2.43
	c-26.96-2.2-60.54-5.03-68.9-5.76h-0.05c-1.23-0.11-1.9-0.14-1.9-0.14s9.74-0.85,23.33-1.99
	C105.09,338.5,154.8,334.37,158.08,334.37z"/>
<path class="st2" d="M228.54,346.28c0,20.7-16.79,37.5-37.51,37.5c-7.87,0-15.19-2.43-21.22-6.58
	c-9.83-6.77-16.28-18.09-16.28-30.92c0-9.15,3.27-17.56,8.73-24.06c6.88-8.23,17.22-13.45,28.77-13.45
	C211.75,308.77,228.54,325.56,228.54,346.28z"/>
<path class="st3" d="M271.19,403.39c-4.71,3.48-9.56,6.75-14.61,9.77"/>
<path class="st4" d="M224.45,347.2c0,19.66-15.92,35.6-35.58,35.6c-6.43,0-12.46-1.71-17.67-4.71
	c-9.98-6.88-16.54-18.38-16.54-31.41c0-9.3,3.32-17.84,8.86-24.44c6.46-6.55,15.42-10.61,25.35-10.61
	C208.53,311.61,224.45,327.55,224.45,347.2z"/>
<path class="st5" d="M220.21,349.36c0,18.46-14.95,33.44-33.42,33.44c-6.04,0-11.7-1.61-16.6-4.43
	c-9.38-6.46-15.53-17.26-15.53-29.5c0-8.73,3.12-16.75,8.32-22.96c6.07-6.15,14.48-9.97,23.8-9.97
	C205.25,315.94,220.21,330.91,220.21,349.36z"/>
<path class="st6" d="M214.03,349.36c0,14.98-12.13,27.13-27.11,27.13c-4.9,0-9.49-1.31-13.47-3.59c-7.61-5.24-12.6-14-12.6-23.94
	c0-7.08,2.53-13.59,6.75-18.63c4.92-4.99,11.75-8.09,19.31-8.09C201.89,322.25,214.03,334.39,214.03,349.36z"/>
<path class="st7" d="M208.95,349.36c0,12.12-9.82,21.95-21.94,21.95c-3.96,0-7.68-1.06-10.9-2.9c-6.15-4.24-10.19-11.33-10.19-19.37
	c0-5.73,2.05-11,5.46-15.07c3.98-4.04,9.5-6.54,15.63-6.54C199.13,327.43,208.95,337.25,208.95,349.36z"/>
<path class="st3" d="M271.19,403.39c-4.71,3.48-9.56,6.75-14.61,9.77"/>
<path class="st3" d="M271.19,403.39c-4.71,3.48-9.56,6.75-14.61,9.77"/>
<path class="st8" d="M347.34,263.69c-0.44,7.21-1.3,14.34-2.54,21.31c-1.95,11.12-4.9,21.91-8.74,32.27
	c-12.83,34.65-35.58,64.51-64.81,86.08c-0.02,0.02-0.04,0.02-0.05,0.04c-4.71,3.48-9.56,6.75-14.61,9.77h-0.02
	c-0.04,0.04-0.07,0.05-0.11,0.05c-1.07,0.68-2.15,1.32-3.25,1.94c-5.69,3.27-11.57,6.26-17.63,8.92c-4.74,1.56-9.37,3.39-13.84,5.47
	c-11.64,5.38-22.39,12.39-31.92,20.72c-0.2,0.12-0.37,0.25-0.57,0.41c-0.12,0.07-0.25,0.16-0.37,0.25
	c-0.02-0.48-0.02-0.96-0.02-1.44c0-1.17,0.02-2.35,0.04-3.5c0.02-0.69,0.05-1.39,0.07-2.08c0.04-2.06,0.14-4.12,0.27-6.17
	c0.5-8.41,1.58-16.65,3.16-24.7c2.17-11.05,5.3-21.77,9.31-32.04c6.02-15.37,14-29.77,23.63-42.86c0.32-0.44,0.66-0.91,1-1.35
	c11.16-14.87,24.47-28.06,39.47-39.06C289.41,280.4,317.18,268.45,347.34,263.69z"/>
<path class="st9" d="M253.21,419.52c-0.05,3.54-0.25,7-0.59,10.45c-0.05,0.59-0.11,1.16-0.18,1.74c-1.12,10.5-3.47,20.65-6.9,30.28
	c-7.69,21.73-20.86,40.89-37.83,55.78c-1.47,1.33-2.99,2.59-4.53,3.82c-16.69,13.4-36.64,22.91-58.48,27.06
	c-0.02,0-0.05,0.02-0.07,0.02c-0.14-1.39-0.27-2.77-0.36-4.18c-0.02-0.23-0.04-0.48-0.05-0.73c-0.12-2.13-0.2-4.26-0.2-6.43
	c0-35.72,17.74-67.32,44.85-86.42c0.32-0.23,0.62-0.44,0.94-0.66c9.53-8.33,20.28-15.34,31.92-20.72c4.48-2.08,9.1-3.91,13.84-5.47
	C241.29,422.15,247.17,420.62,253.21,419.52z"/>
<rect x="63.66" y="138.56" class="st10" width="15.72" height="15.72"/>
<rect x="83.82" y="138.56" class="st11" width="15.72" height="15.72"/>
<rect x="105.16" y="138.56" class="st12" width="15.72" height="15.72"/>
<rect x="126.24" y="138.56" class="st13" width="15.72" height="15.72"/>
<rect x="147.32" y="138.56" class="st14" width="15.72" height="15.72"/>
<rect x="168.4" y="138.56" class="st15" width="15.72" height="15.72"/>
<rect x="63.66" y="159.92" class="st8" width="15.72" height="15.72"/>
<rect x="41.93" y="138.56" class="st8" width="15.72" height="15.72"/>
<rect x="83.82" y="159.92" class="st11" width="15.72" height="15.72"/>
<rect x="105.16" y="159.92" class="st12" width="15.72" height="15.72"/>
<rect x="126.24" y="159.92" class="st13" width="15.72" height="15.72"/>
<rect x="147.32" y="159.92" class="st14" width="15.72" height="15.72"/>
<rect x="168.4" y="159.92" class="st15" width="15.72" height="15.72"/>
<rect x="63.66" y="177.87" class="st16" width="15.72" height="15.72"/>
<rect x="83.82" y="177.87" class="st16" width="15.72" height="15.72"/>
<rect x="105.16" y="177.87" class="st17" width="15.72" height="15.72"/>
<rect x="126.24" y="177.87" class="st18" width="15.72" height="15.72"/>
<rect x="41.93" y="177.87" class="st9" width="15.72" height="15.72"/>
<rect x="63.59" y="197.44" class="st19" width="15.72" height="15.72"/>
<rect x="83.75" y="197.44" class="st20" width="15.72" height="15.72"/>
<rect x="41.86" y="197.44" class="st1" width="15.72" height="15.72"/>
<rect x="59.59" y="93.62" class="st21" width="15.72" height="15.72"/>
<rect x="79.74" y="93.62" class="st22" width="15.72" height="15.72"/>
<rect x="101.09" y="93.62" class="st23" width="15.72" height="15.72"/>
<rect x="122.17" y="93.62" class="st24" width="15.72" height="15.72"/>
<rect x="143.25" y="93.62" class="st25" width="15.72" height="15.72"/>
<rect x="164.33" y="93.62" class="st26" width="15.72" height="15.72"/>
<rect x="59.59" y="114.99" class="st2" width="15.72" height="15.72"/>
<rect x="37.85" y="93.62" class="st27" width="15.72" height="15.72"/>
<rect x="79.74" y="114.99" class="st28" width="15.72" height="15.72"/>
<rect x="101.09" y="114.99" class="st29" width="15.72" height="15.72"/>
<rect x="122.17" y="114.99" class="st30" width="15.72" height="15.72"/>
<rect x="143.25" y="114.99" class="st1" width="15.72" height="15.72"/>
<path class="st10" d="M344.8,285c-1,5.69-2.26,11.27-3.75,16.76c-1.46,5.28-3.11,10.45-4.99,15.51
	c-12.83,34.65-35.58,64.51-64.81,86.08c-0.02,0.02-0.04,0.02-0.05,0.04c-4.71,3.48-9.56,6.75-14.61,9.77h-0.02
	c-0.04,0.04-0.07,0.05-0.11,0.05c-1.07,0.68-2.15,1.32-3.25,1.94c-5.69,3.27-11.57,6.26-17.63,8.92c-4.74,1.56-9.37,3.39-13.84,5.47
	c-11.64,5.38-22.39,12.39-31.92,20.72c-0.2,0.12-0.37,0.25-0.57,0.41c0.09-1.47,0.21-2.97,0.34-4.42
	C197.05,362.6,262.1,295.55,344.8,285z"/>
<path class="st12" d="M341.05,301.76c-1.46,5.28-3.11,10.45-4.99,15.51c-0.59,1.6-1.21,3.2-1.85,4.76
	c-13.1,32.63-35.08,60.74-62.96,81.32c-0.02,0.02-0.04,0.02-0.05,0.04c-4.71,3.48-9.56,6.75-14.61,9.77h-0.02
	c-0.04,0.04-0.07,0.05-0.11,0.05c-1.07,0.68-2.15,1.32-3.25,1.94c-5.69,3.27-11.57,6.26-17.63,8.92c-4.74,1.56-9.37,3.39-13.84,5.47
	c-11.64,5.38-22.39,12.39-31.92,20.72c-0.09,0.05-0.18,0.12-0.27,0.18c0,0-0.02,0-0.02,0.02c-0.09,0.05-0.2,0.12-0.28,0.21
	c0.09-1.47,0.21-2.97,0.34-4.42C208.66,373.82,267.34,317.47,341.05,301.76z"/>
<path class="st13" d="M334.21,322.03c-3.75,9.37-8.25,18.34-13.4,26.89c-12.79,21.25-29.68,39.75-49.56,54.43
	c-0.02,0.02-0.04,0.02-0.05,0.04c-4.71,3.48-9.56,6.75-14.61,9.77h-0.02c-0.04,0.04-0.07,0.05-0.11,0.05
	c-1.07,0.68-2.15,1.32-3.25,1.94c-5.69,3.27-11.57,6.26-17.63,8.92c-4.74,1.56-9.37,3.39-13.84,5.47
	c-11.64,5.38-22.39,12.39-31.92,20.72c-0.09,0.05-0.18,0.12-0.27,0.18c0.36-1,0.71-1.99,1.08-2.99c-0.02-0.02-0.02-0.02,0-0.02
	C213.95,384.73,267.84,336.89,334.21,322.03z"/>
<path class="st31" d="M252.62,429.97c-0.05,0.59-0.11,1.16-0.18,1.74c-0.28,2.74-0.66,5.44-1.12,8.12
	c-1.3,7.62-3.23,15.03-5.78,22.16c-7.69,21.73-20.86,40.89-37.83,55.78c-1.47,1.33-2.99,2.59-4.53,3.82
	c-16.69,13.4-36.64,22.91-58.48,27.06c0.02-0.11,0.04-0.2,0.05-0.3C154.01,490.75,196.88,444.38,252.62,429.97z"/>
<path class="st14" d="M320.81,348.92c-4.85,8.07-10.31,15.74-16.3,22.96c-9.76,11.8-20.93,22.37-33.27,31.47
	c-0.02,0.02-0.04,0.02-0.05,0.04c-4.71,3.48-9.56,6.75-14.61,9.77h-0.02c-0.04,0.04-0.07,0.05-0.11,0.05
	c-1.07,0.68-2.15,1.32-3.25,1.94c-5.69,3.27-11.57,6.26-17.63,8.92c-4.74,1.56-9.37,3.39-13.84,5.47
	c-11.64,5.38-22.39,12.39-31.92,20.72c-0.09,0.05-0.18,0.12-0.27,0.18c0.36-1,0.71-1.99,1.08-2.99c-0.02-0.02-0.02-0.02,0-0.02
	c0.6-1.1,1.23-2.22,1.88-3.31C219.8,396.72,265.99,361.55,320.81,348.92z"/>
<path class="st16" d="M251.33,439.83c-1.12,6.63-2.74,13.1-4.82,19.35c-0.3,0.94-0.62,1.88-0.96,2.81
	c-1.26,3.57-2.68,7.09-4.26,10.52c-7.87,17.4-19.39,32.82-33.57,45.26c-1.47,1.33-2.99,2.59-4.53,3.82
	c-16.69,13.4-36.64,22.91-58.48,27.06c0.02-0.11,0.04-0.2,0.05-0.3c0.39-1.01,0.8-2.03,1.23-3.04c0.44-1.05,0.89-2.1,1.35-3.15
	c0-0.02,0-0.02,0.02-0.04C167.31,495.95,204.75,459.08,251.33,439.83z"/>
<path class="st15" d="M304.51,371.88c-9.76,11.8-20.93,22.37-33.27,31.47c-0.02,0.02-0.04,0.02-0.05,0.04
	c-4.71,3.48-9.56,6.75-14.61,9.77h-0.02c-0.04,0.04-0.07,0.05-0.11,0.05c-1.07,0.68-2.15,1.32-3.25,1.94
	c-5.69,3.27-11.57,6.26-17.63,8.92c-4.74,1.56-9.37,3.39-13.84,5.47c-11.64,5.38-22.39,12.39-31.92,20.72
	c-0.09,0.05-0.18,0.12-0.27,0.18c0.36-1,0.71-1.99,1.08-2.99c-0.02-0.02-0.02-0.02,0-0.02c0.6-1.1,1.23-2.22,1.88-3.31
	C220.05,408.58,259.32,382.56,304.51,371.88z"/>
<path class="st17" d="M246.51,459.19c-0.3,0.94-0.62,1.88-0.96,2.81c-1.26,3.57-2.68,7.09-4.26,10.52
	c-1.92,4.25-4.05,8.37-6.38,12.37c-7.27,12.37-16.47,23.49-27.19,32.89c-1.47,1.33-2.99,2.59-4.53,3.82
	c-16.69,13.4-36.64,22.91-58.48,27.06c0.02-0.11,0.04-0.2,0.05-0.3c0.2-0.5,0.39-1.01,0.6-1.51c0.2-0.52,0.41-1.01,0.62-1.53
	C168.62,506.35,204.04,475.71,246.51,459.19z"/>
<path class="st18" d="M234.91,484.88c-7.27,12.37-16.47,23.49-27.19,32.89c-1.47,1.33-2.99,2.59-4.53,3.82
	c-16.69,13.4-36.64,22.91-58.48,27.06c0.02-0.11,0.04-0.2,0.05-0.3c0.2-0.5,0.39-1.01,0.6-1.51
	C167.93,517.94,199.05,496.01,234.91,484.88z"/>
<circle class="st15" cx="179.1" cy="339.5" r="5.02"/>
<circle class="st14" cx="180.28" cy="339.5" r="5.02"/>
<circle class="st12" cx="181.61" cy="339.5" r="5.02"/>
<path class="st19" d="M153.96,340.68l-0.21,5.7l-0.18,4.98c-6.2-0.43-17.97-1.35-31.37-2.43c-26.96-2.2-60.54-5.03-68.9-5.76h-0.05
	c-0.76-0.07-1.32-0.11-1.62-0.12l-0.28-0.02L153.96,340.68z"/>
<path class="st20" d="M153.75,346.39l-0.18,4.98c-6.2-0.43-17.97-1.35-31.37-2.43c-26.96-2.2-60.54-5.03-68.9-5.76h-0.05
	c-0.76-0.07-1.32-0.11-1.62-0.12l101.9,3.23L153.75,346.39z"/>
<path class="st32" d="M201.71,381c-2.4,6.1-4.46,12.37-6.2,18.8c-23.07-3.75-40.69-23.65-40.89-47.75
	c-0.02-0.14-0.02-0.28-0.02-0.43c0-0.34,0-0.68,0.04-1c-0.02-0.23-0.02-0.46,0.02-0.69c0.02-0.25,0.04-0.46,0.04-0.71
	c0.02,0.48,0.05,0.94,0.11,1.44c0.21,2.01,0.59,3.96,1.12,5.88c0.02,0.04,0.04,0.11,0.05,0.14c0.37,1.33,0.82,2.65,1.33,3.89
	c5.4,13.03,18.25,22.21,33.21,22.21C194.42,382.8,198.19,382.16,201.71,381z"/>
<text transform="matrix(1 0 0 1 37.8537 85.0294)" class="st33 st34">Color Palette</text>
<text transform="matrix(1 0 0 1 433.394 85.0294)" class="st33 st34">Homework</text>
<line class="st35" x1="399.69" y1="37.42" x2="399.69" y2="714.04"/>
<g>
	<path class="st20" d="M701.78,306.28L701.78,306.28z"/>
	<g>
		<path class="st36" d="M701.78,307.85c2.03,0,2.03-3.15,0-3.15C699.75,304.7,699.75,307.85,701.78,307.85z"/>
	</g>
</g>
<g>
	<g>
		<path class="st37" d="M864.17,372.13c-4.93,8.92-9.07,18.15-12.59,27.74c-0.7,1.91,2.34,2.73,3.04,0.84
			c0.91-2.48,1.86-4.94,2.86-7.38c0.25-0.6,0.49-1.19,0.74-1.79c0.11-0.25,0.21-0.51,0.32-0.76c-0.02,0.05-0.16,0.38-0.07,0.16
			c0.53-1.26,1.09-2.51,1.66-3.76c2.06-4.51,4.32-9.05,6.75-13.45C867.87,371.94,865.15,370.35,864.17,372.13L864.17,372.13z"/>
	</g>
</g>
<g>
	<g>
		<path class="st37" d="M868.5,370.85c1.72-3.04,3.57-6,5.46-8.93c0.45-0.69,0.16-1.77-0.57-2.15c-0.78-0.41-1.68-0.18-2.15,0.56
			c-1.89,2.93-3.74,5.89-5.46,8.93c-0.41,0.72-0.19,1.75,0.57,2.15C867.09,371.81,868.07,371.62,868.5,370.85L868.5,370.85z"/>
	</g>
</g>
<g>
	<path class="st0" d="M806.15,365.3c0,0.04-0.01,0.08-0.01,0.12c-0.11,1.36-0.16,2.72-0.16,4.08c0,0.57,0.01,1.13,0.02,1.68
		c0.51,15.8,8.17,31.38,22.3,42.26c0.35,0.27,0.69,0.53,1.06,0.79c0.27,0.21,0.55,0.41,0.83,0.6c0.15,0.11,0.3,0.23,0.46,0.34
		c0.29,0.21,0.58,0.41,0.87,0.6c2.2,1.5,4.49,2.88,6.89,4.13c0.36,0.21,0.73,0.39,1.09,0.57c0.84,0.43,1.7,0.84,2.56,1.24
		c0.55,0.25,1.09,0.49,1.65,0.73c0.56,0.25,1.12,0.47,1.69,0.7c0.4,0.16,0.8,0.33,1.21,0.48c2.44,0.93,4.96,1.75,7.52,2.43"/>
</g>
<g>
	<path class="st15" d="M974.96,365.72c-16.31,27.18-39.19,49.97-66.46,66.16c-2.8,1.67-5.65,3.26-8.54,4.77
		c-12.05,3.06-23.43,7.76-33.91,13.85c-0.64,0.37-1.27,0.75-1.91,1.13c-0.63,0.38-1.26,0.77-1.88,1.16
		c-0.63,0.39-1.25,0.79-1.87,1.19s-1.23,0.81-1.84,1.22c-0.61,0.41-1.22,0.83-1.83,1.25c-1.21,0.84-2.4,1.71-3.58,2.59
		c-0.58,0.44-1.17,0.89-1.75,1.34c-0.66,0.51-1.32,1.02-1.97,1.56c-0.22,0.18-0.45,0.36-0.67,0.54c-0.22,0.17-0.44,0.36-0.66,0.54
		c1.69-3.48,3.51-6.88,5.42-10.23C879.03,408.34,923,375.85,974.96,365.72z"/>
</g>
<g>
	<path class="st8" d="M1001.82,276.82c-0.26,5.5-0.75,10.95-1.48,16.32c-0.68,5.2-1.58,10.33-2.69,15.39
		c-1.48,6.8-3.32,13.46-5.51,19.96c-1.43,4.27-3.01,8.47-4.73,12.6c-25.63,4.47-49.38,14.37-70.06,28.46
		c-19.7,13.43-36.59,30.69-49.61,50.7c-1.35,2.08-2.66,4.19-3.93,6.33c-6.89,11.61-12.51,24.06-16.66,37.16
		c0,0.02-0.01,0.05-0.01,0.07c-0.01,0.01-0.01,0.01-0.02,0.02c-0.42,0.35-0.83,0.7-1.24,1.06c-0.04,0.03-0.08,0.07-0.12,0.11
		c-0.55,0.47-1.1,0.95-1.64,1.44c-0.31,0.27-0.62,0.55-0.93,0.84c-0.47,0.42-0.93,0.85-1.39,1.28c-0.02-1.12-0.03-2.26-0.03-3.4
		c0-3.06,0.07-6.1,0.22-9.12c0.47-10.23,1.77-20.25,3.8-29.99c0.19-0.92,0.39-1.83,0.59-2.74c0.17-0.8,0.36-1.58,0.55-2.38
		c0.17-0.72,0.35-1.45,0.53-2.18c0.02-0.1,0.05-0.21,0.08-0.31c0.02-0.14,0.06-0.27,0.1-0.4c0.19-0.73,0.38-1.45,0.57-2.18
		c0.22-0.84,0.46-1.68,0.69-2.52c0.27-0.96,0.55-1.92,0.83-2.88c0.11-0.34,0.21-0.67,0.32-1.01c0.18-0.58,0.36-1.17,0.54-1.75
		c0.18-0.58,0.37-1.16,0.56-1.73c0.09-0.29,0.19-0.57,0.28-0.86c0.1-0.29,0.19-0.57,0.29-0.86c0.01-0.05,0.03-0.11,0.05-0.16
		c0.13-0.4,0.27-0.8,0.41-1.2c0.1-0.32,0.21-0.64,0.32-0.96c0.12-0.33,0.25-0.66,0.37-0.99c0.05-0.14,0.1-0.27,0.15-0.41
		c0-0.01,0.01-0.02,0.01-0.03c0.01-0.03,0.02-0.07,0.04-0.1c0.27-0.76,0.55-1.51,0.84-2.26c0.29-0.78,0.59-1.56,0.89-2.33
		c0.3-0.78,0.61-1.55,0.92-2.32c0.16-0.39,0.33-0.79,0.49-1.19c0.17-0.4,0.33-0.8,0.5-1.19c0.11-0.25,0.21-0.51,0.32-0.76
		c0-0.02,0.01-0.04,0.02-0.06s0.02-0.05,0.03-0.07c0.01-0.03,0.02-0.06,0.04-0.09c0.06-0.16,0.12-0.32,0.19-0.47
		c0.04-0.11,0.09-0.21,0.13-0.32c0.09-0.19,0.17-0.38,0.26-0.57c0.43-1.01,0.88-2.02,1.36-3.03c0.09-0.2,0.19-0.41,0.29-0.61
		c0.31-0.69,0.63-1.37,0.96-2.05c0.19-0.41,0.38-0.82,0.59-1.22c0.12-0.26,0.24-0.51,0.37-0.77c0.05-0.09,0.09-0.19,0.14-0.28
		c0.36-0.74,0.73-1.48,1.11-2.21c0.14-0.28,0.29-0.57,0.43-0.85c0.13-0.28,0.28-0.55,0.43-0.83c0.24-0.46,0.49-0.93,0.73-1.39
		c0.46-0.88,0.94-1.74,1.42-2.61c0.06-0.11,0.12-0.21,0.18-0.32c0.47-0.85,0.95-1.7,1.43-2.54c0.43-0.76,0.88-1.52,1.32-2.27
		c0.89-1.49,1.8-2.99,2.73-4.46c0.47-0.74,0.94-1.47,1.41-2.2c0.95-1.46,1.92-2.92,2.92-4.35c0.38-0.56,0.77-1.12,1.17-1.67
		c0.49-0.71,0.99-1.4,1.5-2.09c0.63-0.88,1.27-1.75,1.92-2.61c0.16-0.21,0.32-0.41,0.48-0.62c5.99-7.89,12.59-15.3,19.73-22.17
		c0.35-0.34,0.71-0.68,1.07-1.01C928.53,300.89,963.24,283.08,1001.82,276.82z"/>
</g>
<g>
	<path class="st2" d="M880.59,349.79c-0.16,0.21-0.32,0.41-0.48,0.62c-0.65,0.86-1.29,1.73-1.92,2.61c-0.51,0.69-1.01,1.38-1.5,2.09
		c-0.4,0.55-0.79,1.11-1.17,1.67c-1,1.43-1.97,2.89-2.92,4.35c-0.48,0.72-0.95,1.46-1.41,2.2c-0.29,0.46-0.59,0.92-0.87,1.39
		c0.12-1.06,0.18-2.13,0.18-3.22c0-16.02-12.98-29-29-29s-29,12.98-29,29c0,16.02,12.98,29,29,29c6.97,0,13.37-2.45,18.37-6.55
		c-0.27,0.6-0.55,1.19-0.81,1.79c-0.48,1.01-0.93,2.02-1.36,3.03c-0.15,0.3-0.28,0.59-0.39,0.89c-1.52,3.49-2.92,7.03-4.21,10.62
		c-0.02,0.02-0.02,0.03-0.02,0.05c-0.2,0.53-0.39,1.07-0.58,1.6c-2.22,0.42-4.53,0.63-6.87,0.63c-19.04,0-34.8-14-37.54-32.28v-0.03
		c-0.17-1.06-0.28-2.13-0.35-3.22c-0.05-0.8-0.08-1.62-0.08-2.44c0-0.49,0.01-0.97,0.03-1.45c0.02-0.46,0.04-0.91,0.08-1.36v-0.08
		c0-0.03,0-0.06,0.01-0.09c0.02-0.19,0.03-0.39,0.05-0.59c0.01-0.19,0.03-0.38,0.06-0.58c0.02-0.21,0.04-0.42,0.07-0.62
		c0.04-0.32,0.08-0.63,0.13-0.94c0.04-0.31,0.09-0.62,0.15-0.92c0.05-0.31,0.11-0.61,0.17-0.91c0.02-0.09,0.04-0.19,0.06-0.28
		c0.09-0.45,0.19-0.89,0.3-1.33c0-0.02,0.01-0.03,0.01-0.05c0.38-1.5,0.84-2.96,1.39-4.38v-0.02c0.13-0.34,0.26-0.66,0.4-0.99
		c5.72-13.71,19.26-23.36,35.06-23.36c4.73,0,9.28,0.87,13.45,2.46l0.02,0.01C868.78,332.78,876.55,340.31,880.59,349.79z"/>
</g>
<g>
	<path class="st5" d="M870.5,361.5c0,1.09-0.06,2.16-0.18,3.22c0,0,0,0,0,0.01c-0.64,1.01-1.26,2.03-1.86,3.06
		c-0.46,0.75-0.9,1.51-1.32,2.27c-0.49,0.84-0.97,1.69-1.43,2.54c-0.06,0.11-0.12,0.21-0.18,0.32c-0.48,0.87-0.96,1.73-1.42,2.61
		c-0.25,0.46-0.5,0.92-0.73,1.39c-0.15,0.28-0.3,0.55-0.43,0.83c-0.53,1.01-1.05,2.03-1.54,3.06c-0.05,0.09-0.1,0.19-0.14,0.28
		c-0.27,0.52-0.53,1.04-0.76,1.56c-0.21,0.42-0.42,0.85-0.62,1.28c-0.01,0.01-0.01,0.01-0.02,0.02c-5,4.1-11.4,6.55-18.37,6.55
		c-16.02,0-29-12.98-29-29c0-16.02,12.98-29,29-29S870.5,345.48,870.5,361.5z"/>
</g>
<g>
	<path class="st9" d="M908.48,434.79c-0.11,6.59-0.69,13.06-1.73,19.38c-0.97,5.96-2.34,11.79-4.08,17.46
		c-1.89,6.17-4.22,12.15-6.95,17.9c-4.51,9.5-10.11,18.38-16.63,26.47c-6.69,8.3-14.36,15.77-22.82,22.25
		c-15.87,12.15-34.55,20.8-54.9,24.8c-0.34,0.08-0.69,0.14-1.03,0.2c-0.14,0.03-0.27,0.06-0.41,0.08h-0.01
		c-0.04,0.01-0.09,0.02-0.13,0.03c0.6-37.37,16.64-71.01,42.01-94.8c0.46-0.43,0.92-0.86,1.39-1.28c0.31-0.29,0.62-0.57,0.93-0.84
		c0.54-0.49,1.09-0.97,1.64-1.44c0.04-0.04,0.08-0.08,0.12-0.11c0.41-0.36,0.82-0.71,1.24-1.06c0.01-0.01,0.01-0.01,0.02-0.02
		c0.31-0.27,0.63-0.53,0.95-0.79c0.22-0.18,0.44-0.37,0.66-0.54c0.22-0.18,0.45-0.36,0.67-0.54c0.65-0.54,1.31-1.05,1.97-1.56
		c0.58-0.45,1.17-0.9,1.75-1.34c1.18-0.88,2.37-1.75,3.58-2.59c0.61-0.42,1.22-0.84,1.83-1.25c0.61-0.41,1.22-0.82,1.84-1.22
		s1.24-0.8,1.87-1.19c0.62-0.39,1.25-0.78,1.88-1.16c0.64-0.38,1.27-0.76,1.91-1.13c10.48-6.09,21.86-10.79,33.91-13.85
		C902.77,435.94,905.6,435.32,908.48,434.79z"/>
</g>
<path class="st10" d="M1000.34,293.14c-0.68,5.2-1.58,10.33-2.69,15.39c-1.48,6.8-3.32,13.46-5.51,19.96
	c-1.43,4.27-3.01,8.47-4.73,12.6c-52.6,9.17-97.34,41.2-123.6,85.49c-6.89,11.61-12.51,24.06-16.66,37.16
	c0,0.02-0.01,0.05-0.01,0.07c-0.01,0.01-0.01,0.01-0.02,0.02c-0.42,0.35-0.83,0.7-1.24,1.06
	C848.88,376.98,915.01,305.1,1000.34,293.14z"/>
<path class="st12" d="M997.65,308.53c-1.48,6.8-3.32,13.46-5.51,19.96c-1.43,4.27-3.01,8.47-4.73,12.6
	c-52.6,9.17-97.34,41.2-123.6,85.49c-6.89,11.61-12.51,24.06-16.66,37.16C857.04,384.2,918.87,320.79,997.65,308.53z"/>
<path class="st13" d="M992.14,328.49c-1.43,4.27-3.01,8.47-4.73,12.6c-52.6,9.17-97.34,41.2-123.6,85.49
	C888.28,376.28,935.53,339.12,992.14,328.49z"/>
<path class="st14" d="M987.41,341.09c-3.56,8.54-7.73,16.77-12.45,24.63c-51.96,10.13-95.93,42.62-121.45,87.07
	c-1.91,3.35-3.73,6.75-5.42,10.23c-0.32,0.26-0.64,0.52-0.95,0.79c0-0.02,0.01-0.05,0.01-0.07c4.15-13.1,9.77-25.55,16.66-37.16
	C890.07,382.29,934.81,350.26,987.41,341.09z"/>
<path class="st16" d="M847.15,463.74c0,0.02-0.01,0.05-0.01,0.07c-0.01,0.01-0.01,0.01-0.02,0.02
	C847.13,463.8,847.14,463.77,847.15,463.74z"/>
<path class="st31" d="M906.75,454.17c-0.97,5.96-2.34,11.79-4.08,17.46c-1.89,6.17-4.22,12.15-6.95,17.9
	c-4.51,9.5-10.11,18.38-16.63,26.47c-6.69,8.3-14.36,15.77-22.82,22.25c-15.87,12.15-34.55,20.8-54.9,24.8
	c-0.34,0.08-0.69,0.14-1.03,0.2c-0.14,0.03-0.27,0.06-0.41,0.08c-0.01-0.04,0-0.08,0.01-0.12
	C804.8,505.97,849.85,460.18,906.75,454.17z"/>
<path class="st16" d="M902.67,471.63c-1.89,6.17-4.22,12.15-6.95,17.9c-4.51,9.5-10.11,18.38-16.63,26.47
	c-6.69,8.3-14.36,15.77-22.82,22.25c-15.87,12.15-34.55,20.8-54.9,24.8c-0.34,0.08-0.69,0.14-1.03,0.2
	c-0.14,0.03-0.27,0.06-0.41,0.08c-0.01-0.04,0-0.08,0.01-0.12C808.15,512.9,850.65,474.12,902.67,471.63z"/>
<path class="st17" d="M895.72,489.53c-4.51,9.5-10.11,18.38-16.63,26.47c-6.69,8.3-14.36,15.77-22.82,22.25
	c-15.87,12.15-34.55,20.8-54.9,24.8c-0.34,0.08-0.69,0.14-1.03,0.2C812.21,521.38,850.28,490.53,895.72,489.53z"/>
<path class="st18" d="M879.09,516c-6.69,8.3-14.36,15.77-22.82,22.25c-15.87,12.15-34.55,20.8-54.9,24.8
	c10.64-27.8,37.58-47.55,69.13-47.55C873.41,515.5,876.27,515.67,879.09,516z"/>
<path class="st38" d="M713.44,358.59v0.02h-0.01c-0.09-0.01-0.13-0.01-0.13-0.01s0.04,0,0.13-0.01H713.44z"/>
<path class="st20" d="M808.78,355.39c0,0.02-0.01,0.03-0.01,0.05c-0.11,0.44-0.21,0.88-0.3,1.33c-0.02,0.09-0.04,0.19-0.06,0.28
	c-0.07,0.3-0.12,0.6-0.17,0.91c-0.06,0.3-0.11,0.61-0.15,0.92c-0.05,0.31-0.09,0.62-0.13,0.94c-0.03,0.2-0.05,0.41-0.07,0.62
	c-0.03,0.2-0.05,0.39-0.06,0.58c-0.02,0.2-0.03,0.4-0.05,0.59c-0.01,0.03-0.01,0.06-0.01,0.09v0.08c-0.04,0.45-0.06,0.9-0.08,1.36
	c-0.02,0.48-0.03,0.96-0.03,1.45c0,0.82,0.03,1.64,0.08,2.44c-0.07,0-0.14-0.01-0.22-0.02c-0.38-0.02-0.8-0.06-1.25-0.09
	c-18.61-1.42-89.29-7.98-92.83-8.31l1.48-0.05L808.78,355.39z"/>
<line class="st38" x1="879.8" y1="417.72" x2="879.79" y2="417.72"/>
<line class="st38" x1="913.7" y1="345.4" x2="913.7" y2="345.39"/>
<path class="st39" d="M859.93,383.9c-0.01,0-0.01,0.01-0.02,0.02c-0.01,0-0.01,0-0.02,0.01c-0.01,0.01-0.01,0.01-0.02,0.02"/>
<path class="st39" d="M870.32,364.73c0-0.01,0-0.01,0-0.01"/>
<circle class="st6" cx="841" cy="361" r="26"/>
<ellipse class="st7" cx="841.5" cy="361.5" rx="21.5" ry="20.5"/>
<ellipse class="st14" cx="833.25" cy="354.74" rx="4.75" ry="4.53"/>
<ellipse class="st12" cx="835.77" cy="354.74" rx="4.75" ry="4.53"/>
<path class="st32" d="M853.08,400.33c-0.07,0.2-0.14,0.4-0.21,0.61c-0.23,0.65-0.46,1.3-0.69,1.95c-0.14,0.4-0.28,0.8-0.41,1.2
	c-0.02,0.05-0.04,0.11-0.05,0.16c-0.1,0.29-0.19,0.57-0.29,0.86c-0.29,0.86-0.57,1.73-0.84,2.59c-0.19,0.58-0.37,1.16-0.54,1.75
	c-0.11,0.34-0.21,0.67-0.32,1.01c-0.28,0.96-0.56,1.92-0.83,2.88c-0.23,0.84-0.47,1.68-0.69,2.52c-0.19,0.73-0.38,1.45-0.57,2.18
	c-0.04,0.13-0.08,0.26-0.1,0.4c-20.86-5.88-36.7-23.76-39.58-45.73c-0.24-1.87-0.39-3.77-0.44-5.7c0.08,0.01,0.15,0.02,0.22,0.02
	c0.07,1.09,0.18,2.16,0.35,3.22v0.03c2.74,18.28,18.5,32.28,37.54,32.28c2.34,0,4.65-0.21,6.87-0.63
	C852.69,401.4,852.88,400.86,853.08,400.33z"/>
<path class="st20" d="M713.43,358.59v0.02h0.01c3.54,0.33,74.22,6.89,92.83,8.31c0,0.04-0.01,0.08-0.01,0.12
	c-0.09,1.32-0.13,2.65-0.13,3.97c0,0.55,0.01,1.1,0.02,1.64"/>
<line class="st36" x1="807.77" y1="361.7" x2="714.92" y2="358.56"/>
<path class="st1" d="M810.57,350c-0.14,0.33-0.27,0.65-0.4,0.99v0.02c-0.55,1.42-1.01,2.88-1.39,4.38l-93.86,3.17l-1.48,0.05v-0.02
	c0.12-0.01,0.32-0.03,0.6-0.06h0.01c8.44-0.78,85.87-7.96,95.66-8.49c0.11-0.01,0.2-0.02,0.29-0.02h0.14
	c0.17-0.01,0.3-0.02,0.4-0.02H810.57z"/>
</svg>
