<?xml version="1.0" encoding="utf-8"?>
<!-- Generator: Adobe Illustrator 25.2.0, SVG Export Plug-In . SVG Version: 6.00 Build 0)  -->
<svg version="1.1" id="Layer_1" xmlns="http://www.w3.org/2000/svg" xmlns:xlink="http://www.w3.org/1999/xlink" x="0px" y="0px"
	 viewBox="0 0 1366 768" style="enable-background:new 0 0 1366 768;" xml:space="preserve">
<style type="text/css">
	.st0{fill:#9D91FF;}
	.st1{fill:#A0E0E0;}
	.st2{fill:none;stroke:#F7931E;stroke-width:14;stroke-miterlimit:10;}
	.st3{fill:#FBB03B;}
	.st4{fill:#F7931E;}
	.st5{fill:#0000FF;}
	.st6{fill:#FFFFFF;}
	.st7{fill:#FF6A83;}
	.st8{fill:#FF7F83;}
	.st9{fill:#2241FF;}
	.st10{fill:#FFEBA2;}
	.st11{fill:none;stroke:#FF7BAC;stroke-width:2;stroke-miterlimit:10;}
	.st12{fill:#F2F2F2;}
	.st13{fill:#FF7BAC;}
</style>
<path class="st0" d="M953,493H536c-6.6,0-12,5.4-12,12l0,0c0,6.6,5.4,12,12,12h417c6.6,0,12-5.4,12-12l0,0
	C965,498.4,959.6,493,953,493z"/>
<path class="st1" d="M727.33,337h-37.67c-5.32,0-9.67,4.35-9.67,9.67v7.67c0,5.32,4.35,9.67,9.67,9.67h37.67
	c5.32,0,9.67-4.35,9.67-9.67v-7.67C737,341.35,732.65,337,727.33,337z"/>
<path class="st2" d="M878,334c35.62,0,58,26.88,58,62.5S907.12,461,871.5,461"/>
<path class="st1" d="M613.12,384h-81.24c-9.83,0-17.88,8.05-17.88,17.88v9.24c0,9.83,8.05,17.88,17.88,17.88h81.24
	c9.83,0,17.88-8.05,17.88-17.88v-9.24C631,392.05,622.95,384,613.12,384z"/>
<path class="st3" d="M730.23,391h-15.25c-3.3,0-5.97-2.68-5.97-5.97v-15c0-28.18,22.84-51.02,51.02-51.02H766v36.23
	C766,374.98,749.98,391,730.23,391z"/>
<path class="st4" d="M731.69,390h-12.92c-2.8,0-5.06-2.27-5.06-5.06v-12.71c0-23.88,19.35-43.23,43.23-43.23H762v30.69
	C762,376.43,748.43,390,731.69,390z"/>
<path class="st3" d="M647.77,391h15.25c3.3,0,5.97-2.68,5.97-5.97v-15c0-28.18-22.84-51.02-51.02-51.02H612v36.23
	C612,374.98,628.02,391,647.77,391z"/>
<path class="st4" d="M646.31,390h12.92c2.8,0,5.06-2.27,5.06-5.06v-12.71c0-23.88-19.35-43.23-43.23-43.23H616v30.69
	C616,376.43,629.57,390,646.31,390z"/>
<path class="st5" d="M839,507H684c-2.2,0-4,1.8-4,4l0,0c0,2.2,1.8,4,4,4h155c2.2,0,4-1.8,4-4l0,0C843,508.8,841.2,507,839,507z"/>
<path class="st4" d="M880.5,411h-113c-25.02,0-45.5,20.47-45.5,45.5v0c0,25.02,20.47,45.5,45.5,45.5h113
	c25.02,0,45.5-20.47,45.5-45.5v0C926,431.47,905.53,411,880.5,411z"/>
<path class="st3" d="M734.71,367.03h-90.43c-33.16,0-60.29,27.13-60.29,60.29v19.38c0,33.16,27.13,60.29,60.29,60.29h90.43
	c33.16,0,60.29-27.13,60.29-60.29v-19.38C795,394.15,767.87,367.03,734.71,367.03z"/>
<circle class="st6" cx="694" cy="411" r="24"/>
<circle class="st6" cx="742" cy="411" r="24"/>
<circle cx="700" cy="419" r="5"/>
<circle cx="732" cy="419" r="5"/>
<ellipse class="st6" cx="660" cy="503" rx="20" ry="16"/>
<ellipse class="st6" cx="707" cy="503" rx="20" ry="16"/>
<path class="st7" d="M725.89,431h-16.77c-3.91,0-7.11,3.2-7.11,7.11v4.77c0,3.91,3.2,7.11,7.11,7.11h16.77
	c3.91,0,7.11-3.2,7.11-7.11v-4.77C733,434.2,729.8,431,725.89,431z"/>
<path class="st8" d="M725.06,437h-8.13c-1.07,0-1.94-0.87-1.94-1.94v-1.13c0-1.07,0.87-1.94,1.94-1.94h8.13
	c1.07,0,1.94,0.87,1.94,1.94v1.13C727,436.13,726.13,437,725.06,437z"/>
<path class="st3" d="M885,493c0,3.85-1.58,7.35-4.11,9.89c-2.54,2.53-6.04,4.11-9.89,4.11h-31c-2.72,0-5.26-0.79-7.41-2.14
	c-0.52,0.09-1.05,0.14-1.59,0.14h-27c-2.48,0-4.72-1.01-6.36-2.64c-1.63-1.64-2.64-3.88-2.64-6.36c0-4.95,4.05-9,9-9h23.36
	c0.69-1.45,1.63-2.76,2.75-3.89c2.54-2.53,6.04-4.11,9.89-4.11h31C878.7,479,885,485.3,885,493z"/>
<path class="st9" d="M610,503h-67c-2.2,0-4,1.8-4,4l0,0c0,2.2,1.8,4,4,4h67c2.2,0,4-1.8,4-4l0,0C614,504.8,612.2,503,610,503z"/>
<path class="st5" d="M953,503h-49c-2.2,0-4,1.8-4,4l0,0c0,2.2,1.8,4,4,4h49c2.2,0,4-1.8,4-4l0,0C957,504.8,955.2,503,953,503z"/>
<path class="st10" d="M651.5,454h-34c-4.67,0-8.5,3.82-8.5,8.5l0,0c0,4.68,3.83,8.5,8.5,8.5h34c4.67,0,8.5-3.82,8.5-8.5l0,0
	C660,457.82,656.17,454,651.5,454z"/>
<path class="st10" d="M826.43,459h-19.86c-3.06,0-5.57,2.51-5.57,5.57v0.86c0,3.06,2.51,5.57,5.57,5.57h19.86
	c3.06,0,5.57-2.51,5.57-5.57v-0.86C832,461.51,829.49,459,826.43,459z"/>
<path class="st10" d="M826.43,490h-19.86c-3.06,0-5.57,2.51-5.57,5.57v0.86c0,3.06,2.51,5.57,5.57,5.57h19.86
	c3.06,0,5.57-2.51,5.57-5.57v-0.86C832,492.51,829.49,490,826.43,490z"/>
<path class="st10" d="M909.43,469h-19.86c-3.06,0-5.57,2.51-5.57,5.57v0.86c0,3.06,2.51,5.57,5.57,5.57h19.86
	c3.06,0,5.57-2.51,5.57-5.57v-0.86C915,471.51,912.49,469,909.43,469z"/>
<path class="st10" d="M832.43,417h-19.86c-3.06,0-5.57,2.51-5.57,5.57v0.86c0,3.06,2.51,5.57,5.57,5.57h19.86
	c3.06,0,5.57-2.51,5.57-5.57v-0.86C838,419.51,835.49,417,832.43,417z"/>
<path class="st10" d="M893.5,440h-53c-4.67,0-8.5,3.82-8.5,8.5l0,0c0,4.68,3.83,8.5,8.5,8.5h53c4.67,0,8.5-3.82,8.5-8.5l0,0
	C902,443.82,898.17,440,893.5,440z"/>
<path class="st1" d="M899.91,373h-65.83c-6.1,0-11.09,4.99-11.09,11.09v0.83c0,6.1,4.99,11.09,11.09,11.09h65.83
	c6.1,0,11.09-4.99,11.09-11.09v-0.83C911,377.99,906.01,373,899.91,373z"/>
<path class="st1" d="M830.33,323h-37.67c-5.32,0-9.67,4.35-9.67,9.67v7.67c0,5.32,4.35,9.67,9.67,9.67h37.67
	c5.32,0,9.67-4.35,9.67-9.67v-7.67C840,327.35,835.65,323,830.33,323z"/>
<path class="st1" d="M542.33,292h-37.67c-5.32,0-9.67,4.35-9.67,9.67v7.67c0,5.32,4.35,9.67,9.67,9.67h37.67
	c5.32,0,9.67-4.35,9.67-9.67v-7.67C552,296.35,547.65,292,542.33,292z"/>
<path class="st10" d="M657.5,403h-34c-4.67,0-8.5,3.82-8.5,8.5l0,0c0,4.68,3.83,8.5,8.5,8.5h34c4.67,0,8.5-3.82,8.5-8.5l0,0
	C666,406.82,662.17,403,657.5,403z"/>
<path class="st10" d="M728,370h-42c-3.85,0-7,3.15-7,7l0,0c0,3.85,3.15,7,7,7h42c3.85,0,7-3.15,7-7l0,0
	C735,373.15,731.85,370,728,370z"/>
<path class="st10" d="M786.7,423h-15.4c-3.46,0-6.3,2.83-6.3,6.3v4.4c0,3.46,2.83,6.3,6.3,6.3h15.4c3.46,0,6.3-2.83,6.3-6.3v-4.4
	C793,425.83,790.17,423,786.7,423z"/>
<path class="st10" d="M614.7,428h-15.4c-3.46,0-6.3,2.83-6.3,6.3v4.4c0,3.46,2.83,6.3,6.3,6.3h15.4c3.46,0,6.3-2.83,6.3-6.3v-4.4
	C621,430.83,618.17,428,614.7,428z"/>
<path class="st10" d="M631.72,380h-13.44c-2.35,0-4.28,1.93-4.28,4.28v1.44c0,2.35,1.93,4.28,4.28,4.28h13.44
	c2.35,0,4.28-1.93,4.28-4.28v-1.44C636,381.93,634.07,380,631.72,380z"/>
<g>
	<path class="st11" d="M741.99,450c0.01,0.16,0.01,0.3,0.01,0.46c0,7.4-5.26,13.39-11.75,13.39s-11.75-5.99-11.75-13.39
		c0-0.16,0-0.3,0.01-0.46"/>
</g>
<g>
	<path class="st11" d="M717.99,450c0.01,0.16,0.01,0.3,0.01,0.46c0,7.4-5.26,13.39-11.75,13.39s-11.75-5.99-11.75-13.39
		c0-0.16,0-0.3,0.01-0.46"/>
</g>
<ellipse class="st4" cx="877.56" cy="334" rx="7.87" ry="7"/>
<ellipse class="st12" cx="713" cy="496" rx="8" ry="4"/>
<path class="st13" d="M777.01,451.4h-19.15c-1.1,0-1.99,0.9-1.99,1.99v0c0,1.1,0.9,1.99,1.99,1.99h19.15c1.1,0,1.99-0.9,1.99-1.99v0
	C779,452.3,778.1,451.4,777.01,451.4z"/>
<path class="st13" d="M776.41,460.89l-18.61-4.51c-1.07-0.26-2.15,0.4-2.41,1.47v0c-0.26,1.07,0.4,2.15,1.47,2.41l18.61,4.51
	c1.07,0.26,2.15-0.4,2.41-1.47l0,0C778.14,462.24,777.47,461.15,776.41,460.89z"/>
<path class="st13" d="M775.01,440.37l-18.07,6.34c-1.03,0.36-1.58,1.51-1.22,2.54l0,0c0.36,1.04,1.51,1.58,2.54,1.22l18.07-6.34
	c1.03-0.36,1.58-1.51,1.22-2.54l0,0C777.19,440.56,776.04,440.01,775.01,440.37z"/>
<path class="st13" d="M665.33,450.4h19.15c1.1,0,1.99,0.9,1.99,1.99v0c0,1.1-0.9,1.99-1.99,1.99h-19.15c-1.1,0-1.99-0.9-1.99-1.99v0
	C663.34,451.3,664.24,450.4,665.33,450.4z"/>
<path class="st13" d="M665.93,459.89l18.61-4.51c1.07-0.26,2.15,0.4,2.41,1.47v0c0.26,1.07-0.4,2.15-1.47,2.41l-18.61,4.51
	c-1.07,0.26-2.15-0.4-2.41-1.47l0,0C664.2,461.24,664.86,460.15,665.93,459.89z"/>
<path class="st13" d="M667.33,439.37l18.07,6.34c1.03,0.36,1.58,1.51,1.22,2.54l0,0c-0.36,1.04-1.51,1.58-2.54,1.22l-18.07-6.34
	c-1.03-0.36-1.58-1.51-1.22-2.54l0,0C665.15,439.56,666.3,439.01,667.33,439.37z"/>
</svg>
